<svg width="207" height="40" viewBox="0 0 207 40" fill="none" xmlns="http://www.w3.org/2000/svg">
<circle cx="20" cy="20" r="20" fill="black"/>
<path d="M26.5 15.6699C29.8333 17.5944 29.8333 22.4056 26.5 24.3301L20.5 27.7942C17.1667 29.7187 13 27.3131 13 23.4641L13 16.5359C13 12.6869 17.1667 10.2813 20.5 12.2058L26.5 15.6699Z" fill="white"/>
<path d="M57.4347 27V12.4545H60.0696V24.7912H66.4759V27H57.4347ZM73.4787 27.2131C72.3849 27.2131 71.4403 26.9858 70.6449 26.5312C69.8542 26.072 69.2457 25.4233 68.8196 24.5852C68.3935 23.7424 68.1804 22.7505 68.1804 21.6094C68.1804 20.4872 68.3935 19.5024 68.8196 18.6548C69.2505 17.8026 69.8518 17.1397 70.6236 16.6662C71.3954 16.188 72.3021 15.9489 73.3438 15.9489C74.0161 15.9489 74.6506 16.0578 75.2472 16.2756C75.8485 16.4886 76.3788 16.8201 76.8381 17.2699C77.3021 17.7197 77.6667 18.2926 77.9318 18.9886C78.197 19.6799 78.3295 20.5038 78.3295 21.4602V22.2486H69.3878V20.5156H75.8651C75.8603 20.0232 75.7538 19.5852 75.5455 19.2017C75.3371 18.8134 75.0459 18.508 74.6719 18.2855C74.3026 18.063 73.8717 17.9517 73.3793 17.9517C72.8537 17.9517 72.392 18.0795 71.9943 18.3352C71.5966 18.5862 71.2865 18.9176 71.0639 19.3295C70.8461 19.7367 70.7348 20.1842 70.7301 20.6719V22.1847C70.7301 22.8191 70.8461 23.3636 71.0781 23.8182C71.3101 24.268 71.6345 24.6136 72.0511 24.8551C72.4678 25.0919 72.9555 25.2102 73.5142 25.2102C73.8883 25.2102 74.2268 25.1581 74.5298 25.054C74.8329 24.9451 75.0956 24.7865 75.3182 24.5781C75.5407 24.3698 75.7088 24.1117 75.8224 23.804L78.223 24.0739C78.0715 24.7083 77.7827 25.2623 77.3565 25.7358C76.9351 26.2045 76.3954 26.5691 75.7372 26.8295C75.0791 27.0852 74.3262 27.2131 73.4787 27.2131ZM85.9521 16.0909V18.0795H79.6808V16.0909H85.9521ZM81.229 13.4773H83.8001V23.7188C83.8001 24.0644 83.8522 24.3295 83.9563 24.5142C84.0652 24.6941 84.2073 24.8172 84.3825 24.8835C84.5576 24.9498 84.7518 24.983 84.9648 24.983C85.1258 24.983 85.2726 24.9711 85.4052 24.9474C85.5425 24.9238 85.6467 24.9025 85.7177 24.8835L86.1509 26.8935C86.0136 26.9408 85.8171 26.9929 85.5614 27.0497C85.3105 27.1065 85.0027 27.1397 84.6381 27.1491C83.9942 27.1681 83.4142 27.071 82.8981 26.858C82.382 26.6402 81.9724 26.304 81.6694 25.8494C81.3711 25.3949 81.2243 24.8267 81.229 24.1449V13.4773ZM96.5682 18.9744L94.2244 19.2301C94.1581 18.9934 94.0421 18.7708 93.8764 18.5625C93.7154 18.3542 93.4976 18.1861 93.223 18.0582C92.9484 17.9304 92.6122 17.8665 92.2145 17.8665C91.6795 17.8665 91.2296 17.9825 90.8651 18.2145C90.5052 18.4465 90.3277 18.7472 90.3324 19.1165C90.3277 19.4337 90.4437 19.6918 90.6804 19.8906C90.9219 20.0895 91.3196 20.2528 91.8736 20.3807L93.7344 20.7784C94.7666 21.0009 95.5336 21.3537 96.0355 21.8366C96.5421 22.3196 96.7978 22.9517 96.8026 23.733C96.7978 24.4195 96.5966 25.0256 96.1989 25.5511C95.8059 26.072 95.259 26.4792 94.5582 26.7727C93.8575 27.0663 93.0526 27.2131 92.1435 27.2131C90.8082 27.2131 89.7334 26.9337 88.919 26.375C88.1046 25.8116 87.6193 25.0279 87.4631 24.0241L89.9702 23.7827C90.0838 24.2751 90.3253 24.6468 90.6946 24.8977C91.0639 25.1487 91.5445 25.2741 92.1364 25.2741C92.7472 25.2741 93.2372 25.1487 93.6065 24.8977C93.9806 24.6468 94.1676 24.3366 94.1676 23.9673C94.1676 23.6548 94.0469 23.3968 93.8054 23.1932C93.5687 22.9896 93.1993 22.8333 92.6974 22.7244L90.8366 22.3338C89.7902 22.116 89.0161 21.7491 88.5142 21.233C88.0123 20.7121 87.7637 20.054 87.7685 19.2585C87.7637 18.5862 87.946 18.0038 88.3153 17.5114C88.6894 17.0142 89.2079 16.6307 89.8707 16.3608C90.5384 16.0862 91.3078 15.9489 92.179 15.9489C93.4574 15.9489 94.4635 16.2211 95.1974 16.7656C95.9361 17.3101 96.393 18.0464 96.5682 18.9744ZM103.997 27V12.4545H109.452C110.569 12.4545 111.507 12.6629 112.264 13.0795C113.027 13.4962 113.602 14.0691 113.99 14.7983C114.383 15.5227 114.58 16.3466 114.58 17.2699C114.58 18.2027 114.383 19.0312 113.99 19.7557C113.597 20.4801 113.017 21.0507 112.25 21.4673C111.483 21.8793 110.538 22.0852 109.416 22.0852H105.801V19.919H109.061C109.714 19.919 110.25 19.8054 110.666 19.5781C111.083 19.3509 111.391 19.0384 111.589 18.6406C111.793 18.2429 111.895 17.786 111.895 17.2699C111.895 16.7538 111.793 16.2992 111.589 15.9062C111.391 15.5133 111.08 15.2079 110.659 14.9901C110.242 14.7675 109.705 14.6562 109.047 14.6562H106.632V27H103.997ZM119.326 12.4545V27H116.755V12.4545H119.326ZM125.109 27.2202C124.417 27.2202 123.795 27.0971 123.241 26.8509C122.692 26.5999 122.256 26.2306 121.934 25.7429C121.617 25.2552 121.458 24.6539 121.458 23.9389C121.458 23.3234 121.572 22.8144 121.799 22.4119C122.026 22.0095 122.336 21.6875 122.729 21.446C123.122 21.2045 123.565 21.0223 124.058 20.8991C124.555 20.7713 125.068 20.679 125.599 20.6222C126.238 20.5559 126.756 20.4967 127.154 20.4446C127.552 20.3878 127.841 20.3026 128.021 20.1889C128.205 20.0705 128.298 19.8883 128.298 19.642V19.5994C128.298 19.0644 128.139 18.6501 127.822 18.3565C127.504 18.063 127.048 17.9162 126.451 17.9162C125.821 17.9162 125.322 18.0535 124.952 18.3281C124.588 18.6027 124.342 18.9271 124.214 19.3011L121.813 18.9602C122.003 18.2973 122.315 17.7434 122.751 17.2983C123.186 16.8485 123.719 16.5123 124.349 16.2898C124.978 16.0625 125.674 15.9489 126.437 15.9489C126.962 15.9489 127.486 16.0104 128.006 16.1335C128.527 16.2566 129.003 16.4602 129.434 16.7443C129.865 17.0237 130.21 17.4048 130.471 17.8878C130.736 18.3707 130.869 18.9744 130.869 19.6989V27H128.397V25.5014H128.312C128.156 25.8045 127.935 26.0885 127.651 26.3537C127.372 26.6141 127.019 26.8248 126.593 26.9858C126.172 27.142 125.677 27.2202 125.109 27.2202ZM125.776 25.331C126.292 25.331 126.74 25.2292 127.119 25.0256C127.497 24.8172 127.789 24.5426 127.992 24.2017C128.201 23.8608 128.305 23.4891 128.305 23.0866V21.8011C128.224 21.8674 128.087 21.929 127.893 21.9858C127.703 22.0426 127.49 22.0923 127.254 22.1349C127.017 22.1776 126.782 22.2154 126.55 22.2486C126.318 22.2817 126.117 22.3101 125.947 22.3338C125.563 22.3859 125.22 22.4711 124.917 22.5895C124.614 22.7079 124.375 22.8736 124.2 23.0866C124.024 23.295 123.937 23.5649 123.937 23.8963C123.937 24.3698 124.11 24.7273 124.455 24.9688C124.801 25.2102 125.241 25.331 125.776 25.331ZM134.661 31.0909C134.311 31.0909 133.987 31.0625 133.688 31.0057C133.395 30.9536 133.16 30.892 132.985 30.821L133.582 28.8182C133.956 28.9271 134.29 28.9792 134.583 28.9744C134.877 28.9697 135.135 28.8774 135.357 28.6974C135.585 28.5223 135.776 28.2287 135.933 27.8168L136.153 27.2273L132.197 16.0909H134.924L137.438 24.3295H137.552L140.073 16.0909H142.808L138.44 28.321C138.236 28.8987 137.966 29.3935 137.63 29.8054C137.294 30.2221 136.882 30.5393 136.394 30.7571C135.911 30.9796 135.334 31.0909 134.661 31.0909ZM149.548 27V16.0909H152.005V17.9446H152.133C152.36 17.3196 152.737 16.8319 153.262 16.4815C153.788 16.1264 154.415 15.9489 155.144 15.9489C155.883 15.9489 156.505 16.1288 157.012 16.4886C157.523 16.8437 157.883 17.3291 158.092 17.9446H158.205C158.447 17.3385 158.854 16.8556 159.427 16.4957C160.004 16.1312 160.689 15.9489 161.479 15.9489C162.483 15.9489 163.302 16.2661 163.937 16.9006C164.571 17.535 164.888 18.4607 164.888 19.6776V27H162.31V20.0753C162.31 19.3982 162.13 18.9034 161.771 18.5909C161.411 18.2737 160.97 18.1151 160.45 18.1151C159.829 18.1151 159.344 18.3092 158.994 18.6974C158.648 19.081 158.475 19.5805 158.475 20.196V27H155.954V19.9688C155.954 19.4053 155.783 18.9555 155.442 18.6193C155.106 18.2831 154.666 18.1151 154.121 18.1151C153.752 18.1151 153.416 18.2098 153.113 18.3991C152.81 18.5838 152.568 18.8466 152.388 19.1875C152.209 19.5237 152.119 19.9167 152.119 20.3665V27H149.548ZM172.255 27.2131C171.19 27.2131 170.267 26.9787 169.485 26.5099C168.704 26.0412 168.098 25.3854 167.667 24.5426C167.241 23.6998 167.028 22.715 167.028 21.5881C167.028 20.4612 167.241 19.474 167.667 18.6264C168.098 17.7789 168.704 17.1207 169.485 16.652C170.267 16.1832 171.19 15.9489 172.255 15.9489C173.321 15.9489 174.244 16.1832 175.025 16.652C175.806 17.1207 176.41 17.7789 176.836 18.6264C177.267 19.474 177.483 20.4612 177.483 21.5881C177.483 22.715 177.267 23.6998 176.836 24.5426C176.41 25.3854 175.806 26.0412 175.025 26.5099C174.244 26.9787 173.321 27.2131 172.255 27.2131ZM172.27 25.1534C172.847 25.1534 173.33 24.9948 173.718 24.6776C174.107 24.3556 174.395 23.9247 174.585 23.3849C174.779 22.8452 174.876 22.2438 174.876 21.581C174.876 20.9134 174.779 20.3097 174.585 19.7699C174.395 19.2254 174.107 18.7921 173.718 18.4702C173.33 18.1482 172.847 17.9872 172.27 17.9872C171.678 17.9872 171.185 18.1482 170.792 18.4702C170.404 18.7921 170.113 19.2254 169.919 19.7699C169.729 20.3097 169.635 20.9134 169.635 21.581C169.635 22.2438 169.729 22.8452 169.919 23.3849C170.113 23.9247 170.404 24.3556 170.792 24.6776C171.185 24.9948 171.678 25.1534 172.27 25.1534ZM189.038 16.0909L185.153 27H182.312L178.427 16.0909H181.169L183.676 24.1946H183.789L186.304 16.0909H189.038ZM190.817 27V16.0909H193.388V27H190.817ZM192.11 14.5426C191.703 14.5426 191.352 14.4077 191.059 14.1378C190.765 13.8632 190.618 13.5341 190.618 13.1506C190.618 12.7623 190.765 12.4332 191.059 12.1634C191.352 11.8887 191.703 11.7514 192.11 11.7514C192.522 11.7514 192.872 11.8887 193.161 12.1634C193.454 12.4332 193.601 12.7623 193.601 13.1506C193.601 13.5341 193.454 13.8632 193.161 14.1378C192.872 14.4077 192.522 14.5426 192.11 14.5426ZM200.862 27.2131C199.768 27.2131 198.823 26.9858 198.028 26.5312C197.237 26.072 196.629 25.4233 196.202 24.5852C195.776 23.7424 195.563 22.7505 195.563 21.6094C195.563 20.4872 195.776 19.5024 196.202 18.6548C196.633 17.8026 197.235 17.1397 198.006 16.6662C198.778 16.188 199.685 15.9489 200.727 15.9489C201.399 15.9489 202.033 16.0578 202.63 16.2756C203.231 16.4886 203.762 16.8201 204.221 17.2699C204.685 17.7197 205.049 18.2926 205.315 18.9886C205.58 19.6799 205.712 20.5038 205.712 21.4602V22.2486H196.771V20.5156H203.248C203.243 20.0232 203.137 19.5852 202.928 19.2017C202.72 18.8134 202.429 18.508 202.055 18.2855C201.685 18.063 201.254 17.9517 200.762 17.9517C200.237 17.9517 199.775 18.0795 199.377 18.3352C198.979 18.5862 198.669 18.9176 198.447 19.3295C198.229 19.7367 198.118 20.1842 198.113 20.6719V22.1847C198.113 22.8191 198.229 23.3636 198.461 23.8182C198.693 24.268 199.017 24.6136 199.434 24.8551C199.851 25.0919 200.338 25.2102 200.897 25.2102C201.271 25.2102 201.61 25.1581 201.913 25.054C202.216 24.9451 202.478 24.7865 202.701 24.5781C202.924 24.3698 203.092 24.1117 203.205 23.804L205.606 24.0739C205.454 24.7083 205.165 25.2623 204.739 25.7358C204.318 26.2045 203.778 26.5691 203.12 26.8295C202.462 27.0852 201.709 27.2131 200.862 27.2131Z" fill="white"/>
</svg>
